<svg width="142" height="192" viewBox="0 0 142 192" fill="none" xmlns="http://www.w3.org/2000/svg">
<path opacity="0.3" fill-rule="evenodd" clip-rule="evenodd" d="M91.8905 46.6869C113.867 53.604 128.958 75.9755 127.651 102.622C126.427 127.565 107.438 145.899 86.5505 155.518C63.4854 166.14 35.7492 172.282 21.5679 151.476C6.4363 129.275 13.092 96.0399 29.4235 71.7042C44.485 49.2608 69.5368 39.6509 91.8905 46.6869Z" fill="#FEC091"/>
<path opacity="0.3" fill-rule="evenodd" clip-rule="evenodd" d="M82.8397 13.1639C77.1225 16.861 74.4865 24.2702 76.8076 31.5285C78.9804 38.3228 85.7005 41.8473 92.32 42.8089C99.6298 43.8707 107.934 43.3148 110.427 36.4122C113.087 29.0471 108.769 20.4023 102.362 15.0031C96.4535 10.0239 88.6552 9.40314 82.8397 13.1639Z" fill="#FEC091"/>
<path d="M40.0973 113.424L40.2841 115.139L41.5243 116.003L40.0508 116.337L39.2334 117.857L39.0466 116.141L37.8064 115.278L39.2799 114.944L40.0973 113.424Z" fill="#FEC091"/>
<path d="M72.2613 132.267L72.4482 133.983L73.6884 134.846L72.2148 135.18L71.3975 136.7L71.2107 134.984L69.9704 134.121L71.444 133.787L72.2613 132.267Z" fill="#FEC091"/>
<path d="M67.1685 60.22L68.5107 61.918L70.4036 62.0081L69.061 63.3455L69.2061 65.5051L67.8638 63.8071L65.971 63.717L67.3135 62.3796L67.1685 60.22Z" fill="#FEC091"/>
<path d="M78.0788 4.99296L78.1244 6.48973L79.139 7.32015L77.8417 7.5097L77.0319 8.76933L76.9862 7.27256L75.9717 6.44214L77.269 6.25259L78.0788 4.99296Z" fill="#FEC091"/>
<path d="M46.8278 36.5028L46.8735 37.9996L47.888 38.83L46.5907 39.0196L45.7809 40.2792L45.7353 38.7824L44.7207 37.952L46.018 37.7625L46.8278 36.5028Z" fill="#FEC091"/>
<path d="M116.786 96.4356L116.892 98.5975L118.38 99.7709L116.51 100.079L115.373 101.921L115.267 99.7587L113.779 98.5852L115.649 98.2772L116.786 96.4356Z" fill="#FEC091"/>
<path d="M24.7804 62.1917L24.7158 63.4036L25.4788 64.1431L24.4182 64.2082L23.6787 65.1705L23.7434 63.9586L22.9804 63.2191L24.041 63.1541L24.7804 62.1917Z" fill="#FEC091"/>
<g opacity="0.5">
<ellipse cx="67.6813" cy="189.349" rx="43.608" ry="2.65903" fill="#FEC091"/>
</g>
<path d="M41.9219 54.534C41.9219 52.9688 43.4662 51.8715 44.9443 52.3864L50.4673 54.3106C51.381 54.6289 51.9933 55.4905 51.9933 56.4581V71.5497C51.9933 72.5173 51.381 73.379 50.4673 73.6973L44.9443 75.6215C43.4662 76.1364 41.9219 75.0391 41.9219 73.4739V54.534Z" fill="#25223A"/>
<path d="M42.8965 56.5186C42.8965 54.9434 44.459 53.8453 45.941 54.3788L49.5147 55.6653C50.417 55.9902 51.0186 56.8461 51.0186 57.8051V69.878C51.0186 70.837 50.417 71.6929 49.5147 72.0177L45.941 73.3043C44.459 73.8378 42.8965 72.7396 42.8965 71.1645V56.5186Z" fill="#FFFCF2"/>
<path d="M44.5205 59.3553C44.5205 58.4552 45.4134 57.8277 46.2602 58.1326L48.5344 58.9513C49.05 59.1369 49.3938 59.626 49.3938 60.174V67.5091C49.3938 68.0571 49.05 68.5462 48.5344 68.7318L46.2602 69.5505C45.4134 69.8554 44.5205 69.2278 44.5205 68.3278V59.3553Z" fill="#FEC091"/>
<path d="M49.4091 167.321L51.0605 158.477C46.7108 158.789 43.9822 157.624 43.1617 157.002L42.5376 160.344L33.7211 174.385C33.6247 174.538 33.5582 174.708 33.5249 174.887L33.3784 175.671C33.3412 175.87 33.354 176.076 33.4157 176.269C33.6561 177.021 34.5343 177.353 35.2118 176.947L48.0556 169.265C48.7645 168.841 49.2574 168.133 49.4091 167.321Z" fill="#25223A"/>
<path d="M51.0835 158.354L52.3281 151.689L44.4292 150.214L43.1846 156.879C45.512 158.642 49.4203 158.597 51.0835 158.354Z" fill="#E87F0F"/>
<path d="M43.5759 154.675L51.5557 156.165L51.0235 158.558C47.1859 159.014 44.1328 157.711 43.1262 157.083L43.5759 154.675Z" fill="white"/>
<path d="M23.581 135.327L29.5146 129.232C25.7213 127.081 24.0959 124.599 23.7574 123.627L21.3858 126.063L6.98433 128.172C6.67107 128.218 6.38164 128.366 6.16077 128.593L5.79129 128.972C5.62494 129.143 5.5036 129.352 5.43813 129.582L5.41107 129.677C5.19792 130.423 5.61462 131.204 6.35337 131.443L20.6297 136.058C21.6726 136.396 22.8164 136.112 23.581 135.327Z" fill="#25223A"/>
<path d="M29.6024 129.143L34.332 124.285L28.5747 118.679L23.8451 123.537C24.8053 126.294 28.0834 128.423 29.6024 129.143Z" fill="#E87F0F"/>
<path d="M25.3927 121.919L31.209 127.582L29.4401 129.279C25.993 127.531 24.1739 124.755 23.684 123.674L25.3927 121.919Z" fill="white"/>
<path d="M43.7851 145.71L59.7927 148.898L64.2482 132.046C64.8805 129.654 66.5075 127.647 68.7172 126.534L92.5723 114.518L68.0846 110.576L55.2976 117.344C53.2846 118.409 51.7733 120.226 51.0921 122.399L43.7851 145.71Z" fill="#FF5B59"/>
<path d="M91.8994 114.813L66.7877 111.297L59.5832 115.043L84.2004 118.717L91.8994 114.813Z" fill="#FF2E2C"/>
<rect width="16.4262" height="1.4409" rx="0.576358" transform="matrix(-0.980737 -0.195333 -0.195333 0.980737 60.0381 148.197)" fill="#FF2E2C"/>
<rect width="16.8242" height="4.51994" rx="0.576358" transform="matrix(-0.980737 -0.195333 -0.195333 0.980737 60.0322 148.8)" fill="#FF5B59"/>
<path d="M29.9289 114.618L41.8426 125.775L54.4069 113.92C56.2727 112.16 58.824 111.319 61.371 111.625L91.3047 115.221L73.5606 98.6169L54.8279 96.7273C52.4685 96.4893 50.1149 97.2309 48.3181 98.7786L29.9289 114.618Z" fill="#FF5B59"/>
<path d="M90.792 115.136L71.9715 98.1172C70.3396 98.8943 70.0112 101.075 71.3419 102.299L84.642 114.524L90.792 115.136Z" fill="#FF2E2C"/>
<rect width="16.4262" height="1.4409" rx="0.576358" transform="matrix(-0.729914 -0.683539 -0.683539 0.729914 42.4209 125.309)" fill="#FF2E2C"/>
<rect width="16.8242" height="4.51994" rx="0.576358" transform="matrix(-0.729914 -0.683539 -0.683539 0.729914 42.0977 125.818)" fill="#FF5B59"/>
<path d="M105.642 108.488L104.471 106.522L101.454 106.291L100.548 110.716C100.423 111.331 100.501 111.97 100.771 112.536L101.66 114.397C101.882 114.862 102.336 115.173 102.85 115.212L103.349 115.25C104.016 115.301 104.63 114.886 104.832 114.249L105.914 110.833C106.162 110.049 106.063 109.195 105.642 108.488Z" fill="#E87F0F"/>
<path d="M101.098 111.569L105.623 110.206C105.845 110.14 106.051 110.348 105.981 110.569L104.789 114.358C104.605 114.944 104.07 115.349 103.456 115.366L103.052 115.378C102.467 115.395 101.929 115.055 101.693 114.519L100.737 112.353C100.597 112.037 100.766 111.669 101.098 111.569Z" fill="#C86709"/>
<path d="M108.435 80.6267C103.201 73.0178 97.7804 65.869 93.0239 67.706C92.3469 67.9674 92.1774 68.7908 92.4234 69.4736C92.839 70.6275 93.0152 71.8093 92.9913 72.6232C92.976 73.1432 93.0364 73.7086 93.3409 74.1303L101.935 86.0296C102.345 86.5967 102.534 87.2935 102.468 87.99L100.74 106.152C100.709 106.477 100.954 106.763 101.279 106.782L103.565 106.917C105.056 107.005 106.366 105.94 106.585 104.464L108.13 94.0744L109.388 84.6315C109.575 83.2245 109.239 81.7962 108.435 80.6267Z" fill="#E87F0F"/>
<path d="M100.828 103.343L101.09 101.338L106.894 103.268L106.7 104.122L100.828 103.343Z" fill="white"/>
<path d="M71.5882 96.204L90.9131 68.4649L73.3012 100.939L72.261 100.184C70.9898 99.2624 70.6905 97.4925 71.5882 96.204Z" fill="white"/>
<path d="M93.6139 112.881C101.149 91.6977 103.355 76.0322 101.513 68.7008C101.328 67.967 100.557 67.6083 99.806 67.704C97.92 67.9443 96.5896 67.3363 95.7046 66.3212C95.2756 65.8292 94.6346 65.5037 94.0437 65.7811C87.6065 68.8028 79.1141 85.4178 72.9833 97.7119C72.3888 98.9042 72.6922 100.345 73.7131 101.201L89.0929 114.095C90.6167 115.373 92.9475 114.755 93.6139 112.881Z" fill="#FF992D"/>
<path d="M93.872 113.113L98.638 96.8439C90.9033 117.99 86.3573 108.978 82.0435 108.188L89.2064 114.47C90.79 115.858 93.2799 115.134 93.872 113.113Z" fill="#E87F0F"/>
<path d="M60.104 66.9174L61.8682 69.0272L60.9874 72.3262L59.2342 72.0877C57.1714 71.8072 56.0775 69.499 57.1666 67.7247L57.466 67.2369C56.4413 67.1238 54.7843 66.8671 53.6655 66.5051C52.8921 66.2548 53.1563 65.739 53.9689 65.7637L57.9808 65.8856C58.8034 65.9106 59.5761 66.2861 60.104 66.9174Z" fill="#E87F0F"/>
<path d="M53.9696 65.7638L58.5678 65.9035C59.0101 65.9169 59.4171 66.1482 59.655 66.5212L57.1957 70.6642C56.4148 70.9404 55.7205 70.0819 56.1537 69.376L57.4667 67.237C56.442 67.1238 54.785 66.8671 53.6662 66.5051C52.8928 66.2549 53.157 65.7391 53.9696 65.7638Z" fill="#C86709"/>
<path d="M85.757 81.1391C94.2612 77.5391 102.352 73.6629 101.507 68.6346C101.387 67.9189 100.614 67.5877 99.8961 67.6916C98.6823 67.8672 97.4891 67.8027 96.6966 67.6159C96.1903 67.4966 95.6243 67.4423 95.15 67.6561L81.7681 73.688C81.1303 73.9754 80.4097 74.0211 79.7407 73.8164L62.2948 68.4785C61.9826 68.383 61.6535 68.5655 61.5693 68.881L60.9786 71.0935C60.5936 72.5356 61.3734 74.033 62.7757 74.5443L72.644 78.1421L81.6423 81.2694C82.9831 81.7354 84.4498 81.6924 85.757 81.1391Z" fill="#E87F0F"/>
<path d="M65.0285 69.1286L66.9404 69.7881L63.8852 75.0871L63.0871 74.7248L65.0285 69.1286Z" fill="white"/>
<path fill-rule="evenodd" clip-rule="evenodd" d="M106.624 46.3955C104.728 47.027 102.717 45.6443 100.781 46.1404C97.9937 46.8546 94.7761 47.4141 93.2109 49.8327C91.5506 52.3983 91.8629 55.7976 92.6129 58.7616C93.4005 61.8746 94.6497 65.3153 97.5 66.7837C100.283 68.2176 103.757 67.2366 106.624 65.9796C108.836 65.0099 109.084 61.5568 111.347 60.7132C115.25 59.2581 120.469 62.5622 123.491 59.6912C126.275 57.046 125.638 52.0446 124.238 48.465C122.872 44.9704 119.908 41.4471 116.188 41.01C112.465 40.5726 110.181 45.2109 106.624 46.3955Z" fill="#25223A"/>
<circle cx="5.79102" cy="5.79102" r="5.79102" transform="matrix(-0.91631 -0.400469 -0.400469 0.91631 108.253 57.5756)" fill="#E87F0F"/>
<path d="M106.199 59.0695C107.248 61.7487 104.768 67.7362 98.5656 65.982C100.663 65.8737 104.722 64.4024 106.199 59.0695Z" fill="#C86709"/>
<ellipse cx="47.5507" cy="54.9443" rx="0.649769" ry="0.518952" transform="rotate(17.0787 47.5507 54.9443)" fill="#25223A"/>
<path d="M54.966 43.5422C55.3957 42.3461 56.7138 41.7249 57.9098 42.1547L62.4451 43.7843C63.6412 44.214 64.2624 45.532 63.8326 46.7281C63.7467 46.9673 63.4831 47.0916 63.2439 47.0056L55.2435 44.131C55.0043 44.0451 54.88 43.7815 54.966 43.5422Z" fill="#FFB362"/>
<path d="M62.6969 49.8871C62.2673 51.0829 60.9496 51.704 59.7538 51.2743L55.2175 49.6444C54.0217 49.2147 53.4006 47.897 53.8303 46.7012C53.9162 46.4621 54.1797 46.3378 54.4189 46.4238L62.4195 49.2985C62.6586 49.3844 62.7829 49.648 62.6969 49.8871Z" fill="#FFB362"/>
<rect x="54.0342" y="44.8641" width="10.3963" height="1.29954" rx="0.649769" transform="rotate(19.7639 54.0342 44.8641)" fill="#FEC091"/>
<rect x="53.6416" y="44.0329" width="11.6958" height="0.649769" rx="0.324885" transform="rotate(19.7639 53.6416 44.0329)" fill="#FF992D"/>
<rect x="54.2656" y="43.8026" width="10.6052" height="0.404542" rx="0.202271" transform="rotate(19.7639 54.2656 43.8026)" fill="#26C589"/>
<path d="M29.1284 64.8405C29.1856 64.5006 29.4981 64.2645 29.8407 64.3024L32.5085 64.5977C32.8795 64.6388 33.1397 64.9832 33.0778 65.3512L32.9088 66.357L28.9473 65.9184L29.1284 64.8405Z" fill="#FF992D"/>
<path d="M28.1578 66.4204C28.2039 66.0705 28.5209 65.8214 28.8718 65.8593L32.8178 66.2859C33.1791 66.325 33.4382 66.6528 33.3926 67.0134L31.9193 78.6659H26.543L28.1578 66.4204Z" fill="#2AB0AF"/>
<rect x="24.7031" y="78.2415" width="8.77189" height="0.565928" rx="0.282964" fill="#27A2A1"/>
<rect x="26.6543" y="75.1455" width="5.9811" height="0.97815" rx="0.162442" transform="rotate(7.26129 26.6543 75.1455)" fill="#27A2A1"/>
<rect x="26.9375" y="72.8652" width="5.9811" height="0.97815" rx="0.162442" transform="rotate(7.26129 26.9375 72.8652)" fill="#27A2A1"/>
<rect x="27.2207" y="70.6014" width="5.9811" height="0.97815" rx="0.162442" transform="rotate(7.26129 27.2207 70.6014)" fill="#27A2A1"/>
<rect x="27.5039" y="68.3377" width="5.9811" height="0.97815" rx="0.162442" transform="rotate(7.26129 27.5039 68.3377)" fill="#27A2A1"/>
<rect x="29.0225" y="64.004" width="4.37345" height="0.97815" rx="0.162442" transform="rotate(7.26129 29.0225 64.004)" fill="#E87F0F"/>
<path d="M28.1532 38.6296C28.0804 38.4656 28.1545 38.2736 28.3185 38.2009L36.2422 34.6878C36.4062 34.6151 36.5981 34.6891 36.6709 34.8531L41.3353 45.3737C41.408 45.5377 41.334 45.7296 41.17 45.8024L33.2463 49.3155C33.0823 49.3882 32.8903 49.3142 32.8176 49.1501L28.1532 38.6296Z" fill="#FF5B59"/>
<rect x="29.3047" y="38.8276" width="7.29484" height="9.96962" rx="0.324885" transform="rotate(-23.9108 29.3047 38.8276)" fill="white"/>
<path d="M33.6961 46.3194L35.7148 37.3744" stroke="white" stroke-width="0.324885"/>
<path d="M36.0363 46.1767L37.4567 39.5888" stroke="white" stroke-width="0.324885"/>
<path d="M31.8869 43.7806L33.3073 37.1927" stroke="white" stroke-width="0.324885"/>
<path d="M34.545 41.3733C33.2742 41.8861 33.1558 44.7076 34.2638 47.4536L38.8523 45.417C37.7443 42.671 35.8159 40.8606 34.545 41.3733Z" fill="#FF992D"/>
<ellipse cx="33.921" cy="40.5147" rx="1.36449" ry="1.43124" transform="rotate(-21.9733 33.921 40.5147)" fill="#25223A"/>
<path d="M35.2764 40.3861C35.523 40.9972 35.2489 41.6766 34.6749 41.9083C34.1008 42.1399 33.432 41.8409 33.1854 41.2298C32.9388 40.6187 33.2129 39.9392 33.7869 39.7076C34.361 39.476 35.0298 39.775 35.2764 40.3861Z" fill="#FFB997" stroke="white" stroke-width="0.162442"/>
</svg>
