<svg width="118" height="162" viewBox="0 0 118 162" fill="none" xmlns="http://www.w3.org/2000/svg">
<path opacity="0.3" fill-rule="evenodd" clip-rule="evenodd" d="M64.8451 34.4328C84.5694 34.5573 102.553 49.0616 108.195 71.1943C113.476 91.9122 102.557 111.697 87.8887 124.829C71.6911 139.331 50.5429 151.342 33.6982 137.89C15.7247 123.536 12.7993 94.6645 20.0327 70.6379C26.7037 48.4798 44.7818 34.3062 64.8451 34.4328Z" fill="#FEC091"/>
<path opacity="0.3" fill-rule="evenodd" clip-rule="evenodd" d="M63.4464 6.12707C68.7003 8.65193 71.7366 14.6612 70.5464 21.0759C69.4322 27.0806 64.1038 30.7974 58.5849 32.3265C52.4906 34.0152 45.3772 34.4368 42.517 28.8424C39.4651 22.8732 42.2023 15.0658 47.0629 9.79047C51.5455 4.92536 58.1022 3.55881 63.4464 6.12707Z" fill="#FEC091"/>
<rect x="67.8975" y="57.5701" width="8.06632" height="13.9074" rx="1.66889" transform="rotate(25.6743 67.8975 57.5701)" fill="#25223A"/>
<ellipse opacity="0.5" cx="60.1142" cy="159.548" rx="37.3349" ry="2.27652" fill="#FEC091"/>
<path d="M38.8649 95.9929L39.0067 97.2958L39.9486 97.9512L38.8296 98.205L38.2089 99.3593L38.067 98.0564L37.1251 97.401L38.2442 97.1472L38.8649 95.9929Z" fill="#FEC091"/>
<path d="M65.7574 125.106L65.8993 126.409L66.8412 127.065L65.7221 127.318L65.1014 128.473L64.9596 127.17L64.0177 126.514L65.1367 126.261L65.7574 125.106Z" fill="#FEC091"/>
<path d="M49.069 107.582L49.2109 108.885L50.1527 109.541L49.0337 109.794L48.413 110.949L48.2711 109.646L47.3292 108.99L48.4483 108.737L49.069 107.582Z" fill="#FEC091"/>
<path d="M58.7944 44.4628L59.8138 45.7523L61.2512 45.8207L60.2317 46.8364L60.3418 48.4764L59.3225 47.1869L57.885 47.1185L58.9046 46.1029L58.7944 44.4628Z" fill="#FEC091"/>
<path d="M67.7085 18.5828L67.7432 19.7195L68.5137 20.3501L67.5285 20.494L66.9135 21.4506L66.8788 20.3139L66.1084 19.6833L67.0935 19.5394L67.7085 18.5828Z" fill="#FEC091"/>
<path d="M99.0259 26.9273L99.0606 28.0639L99.831 28.6946L98.8459 28.8385L98.2309 29.7951L98.1962 28.6584L97.4257 28.0278L98.4109 27.8839L99.0259 26.9273Z" fill="#FEC091"/>
<path d="M99.8864 90.8075L99.9664 92.4493L101.096 93.3405L99.6764 93.5743L98.8128 94.9729L98.7328 93.3311L97.6028 92.44L99.0228 92.2061L99.8864 90.8075Z" fill="#FEC091"/>
<path d="M43.9662 54.7634L43.9171 55.6837L44.4966 56.2453L43.6911 56.2947L43.1296 57.0255L43.1787 56.1052L42.5993 55.5436L43.4047 55.4942L43.9662 54.7634Z" fill="#FEC091"/>
<path d="M72.3598 99.5596L79.5797 83.7414L98.3501 114.613L88.3649 122.728L72.8419 103.415C71.9653 102.324 71.7788 100.832 72.3598 99.5596Z" fill="#E87F0F"/>
<path d="M101.526 123.764L98.1777 119.023L92.5584 122.992L95.9071 127.733C98.3783 127.356 100.683 124.93 101.526 123.764Z" fill="#FCA378"/>
<path d="M105.186 128.891L101.53 123.703C99.1227 126.556 96.778 127.534 95.9066 127.665L88.061 140.428C87.8027 140.848 87.8194 141.382 88.1035 141.785L88.1373 141.833C88.2549 142 88.4121 142.135 88.5947 142.226L89.0772 142.467C89.4832 142.67 89.9678 142.633 90.3388 142.372L104.591 132.329C105.704 131.544 105.971 130.005 105.186 128.891Z" fill="#25223A"/>
<path d="M95.8966 127.834C97.8342 127.761 100.436 125.056 101.481 123.772L100.452 122.152L94.9347 126.481L95.8966 127.834Z" fill="white"/>
<rect width="12.9609" height="4.22572" rx="0.493447" transform="matrix(-0.79636 0.604823 0.604823 0.79636 97.9199 113.795)" fill="#E87F0F"/>
<rect width="14.404" height="3.86973" rx="0.493447" transform="matrix(-0.79636 0.604823 0.604823 0.79636 98.7178 113.764)" fill="#E87F0F"/>
<path d="M77.1536 73.4954L79.0989 73.7328L80.3225 76.0156L77.1701 78.2554C76.7322 78.5666 76.2046 78.7263 75.6676 78.7103L73.9035 78.6577C73.4622 78.6446 73.0615 78.3966 72.8529 78.0074L72.6508 77.6303C72.3803 77.1256 72.4927 76.5009 72.9223 76.1222L75.2231 74.0938C75.7517 73.6278 76.4542 73.4101 77.1536 73.4954Z" fill="#FCA378"/>
<path d="M76.312 78.12L75.8142 74.1048C75.7898 73.9082 75.5554 73.819 75.4066 73.9497L72.8508 76.1937C72.4557 76.5406 72.3239 77.0997 72.5224 77.5865L72.653 77.9068C72.8424 78.3712 73.2941 78.6747 73.7956 78.6746L75.8224 78.6742C76.1189 78.6741 76.3485 78.4143 76.312 78.12Z" fill="#E87F0F"/>
<path d="M101.161 65.9524C98.0968 59.2128 90.1554 51.5723 85.5187 49.0421C84.9733 48.7445 84.314 48.9723 83.9413 49.4694C83.4411 50.1366 82.8817 50.7299 82.4274 51.1791C81.9713 51.63 81.9186 52.3423 82.3253 52.8383L91.3343 63.8249C92.3483 65.0615 91.9361 66.9212 90.4945 67.6134L79.2884 72.9949C79.035 73.1166 78.9343 73.4251 79.0671 73.6728L80.053 75.5123C80.6304 76.5895 81.9094 77.0816 83.0599 76.6693L98.572 71.1107C100.767 70.324 102.126 68.0753 101.161 65.9524Z" fill="#FF2E2C"/>
<path d="M78.9374 140.459L80.6162 132.942C76.8851 133.078 74.5855 131.999 73.9021 131.443L73.2677 134.283L65.3022 146.032C65.2152 146.16 65.1531 146.304 65.1193 146.455L64.9704 147.122C64.9326 147.292 64.9374 147.468 64.9844 147.635C65.1674 148.285 65.9089 148.596 66.5007 148.269L77.7209 142.082C78.3403 141.74 78.7833 141.149 78.9374 140.459Z" fill="#25223A"/>
<path d="M80.6391 132.837L81.9043 127.172L75.1902 125.673L73.925 131.338C75.8634 132.916 79.2087 132.995 80.6391 132.837Z" fill="#FCA378"/>
<path d="M74.3265 129.464L81.1094 130.979L80.5821 133.01C77.2849 133.285 74.7118 132.078 73.8694 131.511L74.3265 129.464Z" fill="white"/>
<path d="M86.0586 124.355L96.2042 89.2833L79.5025 83.6808L72.4205 121.309L86.0586 124.355Z" fill="#FF992D"/>
<path d="M96.0293 89.3121L79.5772 83.7418L78.7974 87.2333L95.4377 91.9608L96.0293 89.3121Z" fill="#E87F0F"/>
<rect width="14.0633" height="1.23362" rx="0.493447" transform="matrix(-0.975957 -0.217964 -0.217964 0.975957 86.332 123.676)" fill="#E87F0F"/>
<rect width="14.404" height="3.86973" rx="0.493447" transform="matrix(-0.975957 -0.217964 -0.217964 0.975957 86.3154 124.192)" fill="#FF992D"/>
<path d="M76.208 82.7363L82.0791 51.9916L79.1972 85.8484L78.1042 85.6093C76.7981 85.3236 75.9573 84.0495 76.208 82.7363Z" fill="white"/>
<path d="M99.4767 86.643C98.1668 67.0402 94.4848 53.727 90.4752 48.5424C90.0789 48.03 89.3506 48.0132 88.7946 48.3455C87.3974 49.1807 86.1453 49.1599 85.103 48.667C84.5977 48.4281 83.9842 48.3922 83.6344 48.8282C79.6917 53.7432 79.0291 73.5075 78.4747 85.7627C78.4134 87.1186 79.4537 88.274 80.8089 88.3493L96.894 89.2429C98.3609 89.3244 99.5746 88.1089 99.4767 86.643Z" fill="#FF5B59"/>
<path d="M99.511 86.6354L97.8696 71.6061C99.052 90.8472 91.8815 87.7831 88.2267 88.6431L96.8535 89.362C98.3995 89.4908 99.6794 88.1777 99.511 86.6354Z" fill="#FF2E2C"/>
<path d="M77.9859 84.9303L79.9323 84.7014L81.6605 86.6305L79.1265 89.5516C78.7744 89.9575 78.2995 90.2373 77.7739 90.3486L76.0473 90.7143C75.6154 90.8057 75.1675 90.6594 74.8729 90.3306L74.5874 90.0119C74.2053 89.5853 74.167 88.9518 74.4949 88.4823L76.2514 85.9677C76.6549 85.3901 77.2861 85.0126 77.9859 84.9303Z" fill="#FCA378"/>
<path d="M78.2603 89.6227L76.8281 85.8387C76.758 85.6534 76.5091 85.6222 76.3954 85.7843L74.4421 88.5686C74.1401 88.9989 74.1441 89.5733 74.452 89.9995L74.6546 90.2799C74.9483 90.6864 75.4589 90.8747 75.9462 90.7561L77.9155 90.2768C78.2037 90.2067 78.3653 89.9 78.2603 89.6227Z" fill="#E87F0F"/>
<path d="M95.9971 73.7287C97.7972 66.4752 93.8824 53.6846 90.6071 48.677C90.267 48.157 89.5783 48.0464 89.0149 48.3085C88.2589 48.6602 87.4856 48.9188 86.873 49.1001C86.2579 49.282 85.8749 49.8849 85.9991 50.5142L89.1785 66.6303C89.2936 67.2138 89.194 67.8193 88.8981 68.3353L79.6036 84.5415C79.5679 84.6038 79.5491 84.6744 79.5491 84.7462C79.5491 86.5278 81.6591 87.4676 82.9834 86.2759L94.7419 75.695C95.3339 75.1623 95.8053 74.5016 95.9971 73.7287Z" fill="#FF2E2C"/>
<path fill-rule="evenodd" clip-rule="evenodd" d="M87.0794 26.3773C89.7809 26.4948 92.1781 27.7993 94.1803 29.6216C96.3083 31.5584 98.4806 33.8595 98.4662 36.7411C98.4518 39.6145 96.1198 41.7417 94.1093 43.7895C92.0753 45.8613 89.9789 48.3475 87.0794 48.3393C84.184 48.3311 82.1472 45.7918 80.089 43.7499C78.0141 41.6914 75.5382 39.6639 75.3889 36.7411C75.2348 33.7251 77.0779 30.976 79.3343 28.9756C81.4545 27.0961 84.252 26.2543 87.0794 26.3773Z" fill="#25223A"/>
<circle cx="4.95797" cy="4.95797" r="4.95797" transform="matrix(-1 0 0 1 91.9463 37.5036)" fill="#FCA378"/>
<path d="M90.8486 39.3796C92.5904 41.1216 92.6976 46.6691 87.2305 47.4195C88.8385 46.6155 91.5185 44.0695 90.8486 39.3796Z" fill="#E87F0F"/>
<path d="M9.96609 135.629L12.5908 128.388C15.664 130.508 18.1831 130.835 19.0585 130.733L18.0667 133.469L18.4687 147.658C18.4731 147.813 18.4483 147.967 18.3954 148.113L18.1626 148.755C18.1034 148.918 18.0047 149.064 17.8752 149.18C17.3712 149.63 16.5791 149.493 16.2555 148.9L10.1197 137.652C9.78099 137.031 9.72506 136.294 9.96609 135.629Z" fill="#25223A"/>
<path d="M12.6274 128.287L14.6055 122.83L21.0732 125.175L19.0951 130.632C16.6121 130.921 13.7487 129.189 12.6274 128.287Z" fill="#E87F0F"/>
<path d="M19.7634 128.836L13.2295 126.467L12.5824 128.463C15.2151 130.467 18.0335 130.833 19.0488 130.807L19.7634 128.836Z" fill="white"/>
<path d="M12.6175 118.222L22.9134 83.1937L40.0086 87.4467L25.7551 122.984L12.6175 118.222Z" fill="#27A2A1"/>
<path d="M22.7668 84.0773L39.9117 87.4578L38.1561 92.301L21.5574 87.8364L22.7668 84.0773Z" fill="#3D696B" fill-opacity="0.5"/>
<rect x="12.752" y="117.502" width="14.0633" height="1.23362" rx="0.493447" transform="rotate(19.9246 12.752 117.502)" fill="#3D696B" fill-opacity="0.5"/>
<rect x="12.4893" y="117.946" width="14.404" height="3.86973" rx="0.493447" transform="rotate(19.9246 12.4893 117.946)" fill="#27A2A1"/>
<path d="M37.9403 138.855L36.877 131.227C40.5847 131.665 42.9643 130.776 43.6906 130.277L44.0924 133.16L51.0785 145.516C51.1548 145.651 51.205 145.799 51.2264 145.953L51.3208 146.629C51.3447 146.801 51.3256 146.976 51.2652 147.139C51.03 147.773 50.2658 148.022 49.7024 147.649L39.0212 140.571C38.4316 140.181 38.038 139.556 37.9403 138.855Z" fill="#25223A"/>
<path d="M36.862 131.121L36.0605 125.372L42.8742 124.422L43.6756 130.171C41.6155 131.587 38.2748 131.394 36.862 131.121Z" fill="#E87F0F"/>
<path d="M43.4274 128.27L36.5439 129.23L36.9047 131.297C40.1687 131.838 42.8313 130.845 43.7169 130.347L43.4274 128.27Z" fill="white"/>
<path d="M32.1489 122.227L24.8822 86.4473L41.9834 82.2183L45.9891 120.297L32.1489 122.227Z" fill="#2AB0AF"/>
<path d="M24.7896 86.3835L41.9039 82.273L42.3978 85.8162L25.4288 89.1781L24.7896 86.3835Z" fill="#27A2A1"/>
<rect x="31.9316" y="121.528" width="14.0633" height="1.23362" rx="0.493447" transform="rotate(-7.93583 31.9316 121.528)" fill="#27A2A1"/>
<rect x="31.9072" y="122.043" width="14.404" height="3.86973" rx="0.493447" transform="rotate(-7.93583 31.9072 122.043)" fill="#2AB0AF"/>
<path d="M44.9892 79.9548L39.1182 49.2101L42.0001 83.0669L43.093 82.8278C44.3991 82.5421 45.24 81.268 44.9892 79.9548Z" fill="white"/>
<path d="M21.7216 83.8615C23.0315 64.2587 26.7135 50.9455 30.7231 45.761C31.1194 45.2486 31.8476 45.2317 32.4036 45.5641C33.8008 46.3993 35.0529 46.3785 36.0952 45.8856C36.6005 45.6466 37.2141 45.6107 37.5638 46.0467C41.5066 50.9617 42.1691 70.7261 42.7235 82.9812C42.7849 84.3371 41.7446 85.4926 40.3894 85.5679L24.3042 86.4615C22.8373 86.543 21.6236 85.3274 21.7216 83.8615Z" fill="#FF992D"/>
<path d="M21.6863 83.854L23.3277 68.8246C22.1453 88.0658 29.3158 85.0017 32.9705 85.8617L24.3438 86.5805C22.7977 86.7094 21.5178 85.3962 21.6863 83.854Z" fill="#E87F0F"/>
<path d="M62.9356 66.7169L61.3422 67.8579L61.3629 70.4479L65.2032 70.9021C65.7368 70.9652 66.2763 70.8524 66.7399 70.5809L68.2628 69.689C68.6438 69.4659 68.8765 69.0562 68.873 68.6147L68.8696 68.1868C68.865 67.6141 68.4669 67.1199 67.9082 66.9935L64.9166 66.3165C64.2294 66.161 63.5085 66.3067 62.9356 66.7169Z" fill="#E87F0F"/>
<path d="M65.8912 70.3721L64.4029 66.6098C64.33 66.4256 64.493 66.235 64.6863 66.2783L68.005 67.0222C68.518 67.1372 68.9018 67.5647 68.961 68.087L68.9999 68.4308C69.0564 68.9291 68.8056 69.412 68.3654 69.6524L66.5865 70.6237C66.3262 70.7658 66.0002 70.6479 65.8912 70.3721Z" fill="#C86709"/>
<path d="M42.0756 70.5574C35.6271 66.2166 30.1571 53.2247 29.6481 47.6716C29.6294 47.4668 29.6694 47.2664 29.7612 47.0824C30.6253 45.3501 31.4142 44.9521 32.8321 45.6871C33.0111 45.7799 33.157 45.9255 33.2632 46.0968L42.338 60.7386C42.6464 61.2361 43.1216 61.6078 43.6788 61.7873L61.4764 67.5191C61.5448 67.5411 61.6062 67.5807 61.6546 67.6338C62.8539 68.9512 61.9263 71.0666 60.1448 71.0769L44.3268 71.1683C43.5304 71.1729 42.7363 71.0021 42.0756 70.5574Z" fill="#E87F0F"/>
<path fill-rule="evenodd" clip-rule="evenodd" d="M31.1875 18.3271C28.6205 17.8981 28.2549 22.5475 26.2179 24.1644C24.5966 25.4514 21.3468 24.7376 20.6564 26.6868C19.9126 28.7867 22.8719 30.5479 23.1755 32.7545C23.4189 34.5238 21.6608 36.229 22.2035 37.9308C22.7545 39.6589 24.5952 40.5598 26.0224 41.6824C27.658 42.9688 29.1549 44.545 31.1875 44.9971C33.4135 45.4923 35.8598 45.3789 37.8785 44.3198C39.9218 43.2479 41.0352 41.0835 42.3093 39.1625C43.6556 37.1328 45.8034 35.1753 45.5497 32.7545C45.2937 30.3113 43.0684 28.4718 41.0428 27.0761C39.3881 25.936 36.7832 27.0128 35.2809 25.6791C33.1455 23.7834 34.0062 18.7982 31.1875 18.3271Z" fill="#25223A"/>
<circle cx="34.206" cy="39.6802" r="4.95797" fill="#E87F0F"/>
<path d="M30.3467 36.5982C28.6049 38.3402 28.4977 43.8878 33.9648 44.6382C32.3569 43.8342 29.6768 41.2882 30.3467 36.5982Z" fill="#C86709"/>
</svg>
